<?xml version="1.0" encoding="utf-8"?>
<!-- Generator: Adobe Illustrator 19.0.0, SVG Export Plug-In . SVG Version: 6.00 Build 0)  -->
<svg version="1.1" id="Layer_1" xmlns="http://www.w3.org/2000/svg" xmlns:xlink="http://www.w3.org/1999/xlink" x="0px" y="0px"
	 viewBox="-49 88 160 86" style="enable-background:new -49 88 160 86;" xml:space="preserve">
<style type="text/css">
	.st0{fill:#FFFFFF;}
	.st1{fill:#0061AA;}
	.st2{fill:#A63591;}
	.st3{fill:#0062AA;}
	.st4{fill:#ED3A84;}
	.st5{fill:#B12F6F;}
	.st6{fill:#FCCC08;}
	.st7{fill:#A0C63A;}
	.st8{fill:#17ACE3;}
	.st9{fill:#7C3A92;}
</style>
<rect x="-49" y="88" class="st0" width="160" height="86"/>
<g>
	<path class="st1" d="M-15.8,136.8c-1.6,6.1-3.5,11.9-5.7,17.5c-2.2,5.6-4.3,10.6-6.3,15H-33c-2-4.4-4.1-9.4-6.3-15
		c-2.2-5.6-4.1-11.4-5.7-17.5h6.2c0.5,2,1.1,4.2,1.8,6.5c0.7,2.3,1.4,4.6,2.2,6.9c0.8,2.3,1.5,4.5,2.3,6.6c0.8,2.1,1.5,4,2.2,5.7
		c0.7-1.7,1.5-3.6,2.2-5.7c0.8-2.1,1.6-4.3,2.3-6.6c0.8-2.3,1.5-4.6,2.2-6.9c0.7-2.3,1.3-4.5,1.8-6.5
		C-21.8,136.8-15.8,136.8-15.8,136.8z"/>
	<path class="st1" d="M-10,130.9c-1,0-1.9-0.3-2.7-1c-0.7-0.7-1.1-1.6-1.1-2.8c0-1.2,0.4-2.1,1.1-2.8c0.7-0.7,1.6-1,2.7-1
		c1,0,1.9,0.3,2.6,1c0.7,0.7,1.1,1.6,1.1,2.8c0,1.2-0.4,2.1-1.1,2.8C-8.1,130.5-9,130.9-10,130.9 M-7.1,169.2h-5.8v-32.4h5.8
		L-7.1,169.2L-7.1,169.2z"/>
	<path class="st1" d="M25.1,136.8c-1.6,6.1-3.5,11.9-5.7,17.5c-2.2,5.6-4.3,10.6-6.3,15H7.8c-2-4.4-4.1-9.4-6.3-15
		c-2.2-5.6-4.1-11.4-5.7-17.5H2c0.5,2,1.1,4.2,1.8,6.5c0.7,2.3,1.4,4.6,2.2,6.9c0.8,2.3,1.5,4.5,2.3,6.6c0.8,2.1,1.5,4,2.2,5.7
		c0.7-1.7,1.5-3.6,2.2-5.7c0.8-2.1,1.6-4.3,2.3-6.6c0.8-2.3,1.5-4.6,2.2-6.9c0.7-2.3,1.3-4.5,1.8-6.5
		C19.1,136.8,25.1,136.8,25.1,136.8z"/>
	<path class="st1" d="M25.3,153c0-2.9,0.4-5.4,1.2-7.5c0.8-2.1,1.9-3.9,3.3-5.3c1.4-1.4,3-2.5,4.7-3.2c1.8-0.7,3.6-1.1,5.5-1.1
		c4.4,0,7.7,1.4,10,4.1c2.3,2.7,3.5,6.9,3.5,12.4v1c0,0.4,0,0.8-0.1,1.1H31.3c0.2,3.4,1.2,5.9,2.9,7.7c1.7,1.7,4.4,2.6,8,2.6
		c2,0,3.8-0.2,5.1-0.5c1.4-0.4,2.4-0.7,3.1-1l0.8,4.9c-0.7,0.4-1.9,0.8-3.7,1.2c-1.8,0.4-3.8,0.6-6,0.6c-2.8,0-5.3-0.4-7.3-1.3
		c-2.1-0.9-3.8-2-5.1-3.5c-1.3-1.5-2.3-3.3-3-5.3C25.6,157.7,25.3,155.5,25.3,153 M47.5,149.8c0-2.6-0.6-4.8-2-6.5
		c-1.4-1.7-3.2-2.5-5.6-2.5c-1.3,0-2.5,0.3-3.5,0.8c-1,0.5-1.9,1.2-2.6,2c-0.7,0.8-1.3,1.8-1.7,2.9c-0.4,1.1-0.7,2.2-0.8,3.3
		C31.4,149.8,47.5,149.8,47.5,149.8z"/>
</g>
<g>
	<path class="st2" d="M93.4,105.4c-1.7-0.3-3.4-0.5-5.1-0.5c-8.6,0-16.2,3.8-21.5,9.8c2.9,4.6,4.7,10,4.7,15.9
		c0,5.1-1.3,10-3.6,14.2l1.2,9.8c2.2,2,4.6,3.6,7.3,4.8c0-0.4-0.1-0.8-0.1-1.1c0-9.1,3.2-17.5,8.6-24v-4.4h4.2
		c2-1.8,4.2-3.3,6.5-4.6c-2-3.7-3.2-8-3.2-12.6C92.4,110.1,92.7,107.7,93.4,105.4z M82.9,136.7h-6.1v-6.9h6.1V136.7z M82.9,127.2
		h-6.1v-6.9h6.1V127.2z M91,127.2h-6.1v-6.9H91V127.2z"/>
	<path class="st3" d="M99.7,159.5c-3.5,1.6-7.4,2.4-11.5,2.4c-4.3,0-8.3-1-11.9-2.6c0.1,4.9,1.2,9.5,3,13.7h19L99.7,159.5z"/>
	<path class="st4" d="M102.5,133.4c-2.8-2.2-5.2-5-6.9-8.2c-2.3,1.3-4.5,2.9-6.5,4.6H91v6.9h-6.1v-2.6c-5.4,6.5-8.6,14.9-8.6,24
		c0,0.4,0,0.8,0.1,1.1c3.6,1.7,7.7,2.6,11.9,2.6c4.1,0,8-0.9,11.5-2.4L102.5,133.4z"/>
	<path class="st5" d="M95.6,125.2c1.7,3.2,4.1,6,6.9,8.2l1.2-11.6C100.8,122.6,98.1,123.7,95.6,125.2z"/>
	<path class="st6" d="M104.9,110.3c-3.4-2.4-7.3-4.1-11.5-4.9c-0.6,2.3-1,4.7-1,7.2c0,4.6,1.2,8.9,3.2,12.6c2.5-1.4,5.3-2.6,8.1-3.4
		L104.9,110.3z"/>
	<path class="st7" d="M107.1,89.2l-0.3-0.2c-6.5,3.3-11.4,9.2-13.4,16.4c4.2,0.8,8.2,2.5,11.5,4.9L107.1,89.2z"/>
	<path class="st8" d="M106.8,89L106.8,89l-47.9,17.4c3.1,2.2,5.8,5,7.8,8.2c5.2-6,12.9-9.8,21.5-9.8c1.8,0,3.5,0.2,5.1,0.5
		C95.4,98.3,100.3,92.4,106.8,89z"/>
	<path class="st4" d="M39.2,117.3l2.8,1.7l22.1-0.9c0.8-1.2,1.7-2.4,2.7-3.5c-2.1-3.2-4.7-6-7.8-8.2l-19.7,7.2
		C39.2,113.7,39.2,117.3,39.2,117.3z"/>
	<path class="st9" d="M64.5,118.2l3.3,26.5c2.3-4.2,3.6-9,3.6-14.2c0-5.9-1.7-11.3-4.7-15.9c-1,1.1-1.9,2.3-2.7,3.5L64.5,118.2z"/>
	<path class="st7" d="M76.3,159.3c-2.7-1.2-5.1-2.9-7.3-4.8l2.3,18.5h8C77.5,168.8,76.5,164.2,76.3,159.3z"/>
	<g>
		<rect x="76.7" y="120.3" class="st0" width="6.1" height="6.9"/>
		<rect x="84.8" y="129.8" class="st0" width="6.1" height="6.9"/>
		<rect x="84.8" y="120.3" class="st0" width="6.1" height="6.9"/>
		<rect x="76.7" y="129.8" class="st0" width="6.1" height="6.9"/>
	</g>
</g>
</svg>
